<!DOCTYPE svg PUBLIC "-//W3C//DTD SVG 1.1//EN" "http://www.w3.org/Graphics/SVG/1.1/DTD/svg11.dtd">

<!-- Uploaded to: SVG Repo, www.svgrepo.com, Transformed by: SVG Repo Mixer Tools -->
<svg width="22px" height="22px" viewBox="0 0 512 512" xmlns="http://www.w3.org/2000/svg" fill="#000000">

<g id="SVGRepo_bgCarrier" stroke-width="0"/>

<g id="SVGRepo_tracerCarrier" stroke-linecap="round" stroke-linejoin="round"/>

<g id="SVGRepo_iconCarrier"> <path fill="var(--ci-primary-color, #ffffff)" d="M472,16H168a24,24,0,0,0-24,24V344a24,24,0,0,0,24,24H472a24,24,0,0,0,24-24V40A24,24,0,0,0,472,16Zm-8,320H176V48H464Z" class="ci-primary"/> <path fill="var(--ci-primary-color, #ffffff)" d="M112,400V80H80V408a24,24,0,0,0,24,24H432V400Z" class="ci-primary"/> <path fill="var(--ci-primary-color, #ffffff)" d="M48,464V144H16V472a24,24,0,0,0,24,24H368V464Z" class="ci-primary" /> </g>

</svg>