<!DOCTYPE svg PUBLIC "-//W3C//DTD SVG 1.1//EN" "http://www.w3.org/Graphics/SVG/1.1/DTD/svg11.dtd">

<!-- Uploaded to: SVG Repo, www.svgrepo.com, Transformed by: SVG Repo Mixer Tools -->
<svg width="32px" height="32px" viewBox="0 0 64.00 64.00" xmlns="http://www.w3.org/2000/svg" stroke-width="4.5" stroke="#ffffff" fill="none">

<g id="SVGRepo_bgCarrier" stroke-width="0"/>

<g id="SVGRepo_tracerCarrier" stroke-linecap="round" stroke-linejoin="round"/>

<g id="SVGRepo_iconCarrier">

<path d="M51.61,25.21,33.2,11.4a2,2,0,0,0-2.4,0L12.39,25.21a2,2,0,0,0-.8,1.6V53.45a2,2,0,0,0,2,2H25a2,2,0,0,0,2-2V45a2,2,0,0,1,2-2h7a2,2,0,0,1,2,2v8.45a2,2,0,0,0,2,2H50.41a2,2,0,0,0,2-2V26.81A2,2,0,0,0,51.61,25.21Z"/>

</g>

</svg>