<svg id="visual" viewBox="0 0 900 600" width="900" height="600" xmlns="http://www.w3.org/2000/svg" xmlns:xlink="http://www.w3.org/1999/xlink" version="1.1"><path d="M0 49L60 103L120 103L180 79L240 97L300 85L360 55L420 55L480 67L540 97L600 103L660 85L720 61L780 31L840 67L900 85L900 0L840 0L780 0L720 0L660 0L600 0L540 0L480 0L420 0L360 0L300 0L240 0L180 0L120 0L60 0L0 0Z" fill="#5c5c5c"></path><path d="M0 91L60 127L120 151L180 127L240 163L300 109L360 103L420 91L480 97L540 169L600 139L660 145L720 91L780 103L840 133L900 127L900 83L840 65L780 29L720 59L660 83L600 101L540 95L480 65L420 53L360 53L300 83L240 95L180 77L120 101L60 101L0 47Z" fill="#4f4f4f"></path><path d="M0 283L60 331L120 313L180 205L240 331L300 253L360 295L420 319L480 223L540 331L600 283L660 229L720 187L780 361L840 235L900 247L900 125L840 131L780 101L720 89L660 143L600 137L540 167L480 95L420 89L360 101L300 107L240 161L180 125L120 149L60 125L0 89Z" fill="#424242"></path><path d="M0 337L60 415L120 379L180 283L240 379L300 313L360 385L420 361L480 355L540 409L600 355L660 301L720 253L780 409L840 283L900 337L900 245L840 233L780 359L720 185L660 227L600 281L540 329L480 221L420 317L360 293L300 251L240 329L180 203L120 311L60 329L0 281Z" fill="#353535"></path><path d="M0 463L60 481L120 487L180 451L240 487L300 421L360 457L420 469L480 475L540 517L600 481L660 451L720 463L780 493L840 469L900 487L900 335L840 281L780 407L720 251L660 299L600 353L540 407L480 353L420 359L360 383L300 311L240 377L180 281L120 377L60 413L0 335Z" fill="#292929"></path><path d="M0 481L60 535L120 505L180 499L240 505L300 463L360 517L420 523L480 535L540 535L600 505L660 493L720 529L780 523L840 493L900 511L900 485L840 467L780 491L720 461L660 449L600 479L540 515L480 473L420 467L360 455L300 419L240 485L180 449L120 485L60 479L0 461Z" fill="#1e1e1e"></path><path d="M0 559L60 571L120 553L180 559L240 547L300 547L360 547L420 553L480 571L540 571L600 571L660 565L720 577L780 571L840 571L900 559L900 509L840 491L780 521L720 527L660 491L600 503L540 533L480 533L420 521L360 515L300 461L240 503L180 497L120 503L60 533L0 479Z" fill="#121212"></path><path d="M0 601L60 601L120 601L180 601L240 601L300 601L360 601L420 601L480 601L540 601L600 601L660 601L720 601L780 601L840 601L900 601L900 557L840 569L780 569L720 575L660 563L600 569L540 569L480 569L420 551L360 545L300 545L240 545L180 557L120 551L60 569L0 557Z" fill="#000000"></path></svg>