<!DOCTYPE svg PUBLIC "-//W3C//DTD SVG 1.1//EN" "http://www.w3.org/Graphics/SVG/1.1/DTD/svg11.dtd">

<!-- Uploaded to: SVG Repo, www.svgrepo.com, Transformed by: SVG Repo Mixer Tools -->
<svg width="28px" height="28px" viewBox="0 0 24 24" fill="none" xmlns="http://www.w3.org/2000/svg">

<g id="SVGRepo_bgCarrier" stroke-width="0"/>

<g id="SVGRepo_tracerCarrier" stroke-linecap="round" stroke-linejoin="round"/>

<g id="SVGRepo_iconCarrier"> <path d="M12.9823 2.76424C12.631 2.49099 12.4553 2.35436 12.2613 2.30184C12.0902 2.2555 11.9098 2.2555 11.7387 2.30184C11.5447 2.35436 11.369 2.49099 11.0177 2.76424L4.23539 8.03937C3.78202 8.39199 3.55534 8.5683 3.39203 8.7891C3.24737 8.98469 3.1396 9.20503 3.07403 9.4393C3 9.70376 3 9.99094 3 10.5653V17.8002C3 18.9203 3 19.4804 3.21799 19.9082C3.40973 20.2845 3.71569 20.5905 4.09202 20.7822C4.51984 21.0002 5.0799 21.0002 6.2 21.0002H8.2C8.48003 21.0002 8.62004 21.0002 8.727 20.9457C8.82108 20.8978 8.89757 20.8213 8.9455 20.7272C9 20.6203 9 20.4803 9 20.2002V13.6002C9 13.0402 9 12.7601 9.10899 12.5462C9.20487 12.3581 9.35785 12.2051 9.54601 12.1092C9.75992 12.0002 10.0399 12.0002 10.6 12.0002H13.4C13.9601 12.0002 14.2401 12.0002 14.454 12.1092C14.6422 12.2051 14.7951 12.3581 14.891 12.5462C15 12.7601 15 13.0402 15 13.6002V20.2002C15 20.4803 15 20.6203 15.0545 20.7272C15.1024 20.8213 15.1789 20.8978 15.273 20.9457C15.38 21.0002 15.52 21.0002 15.8 21.0002H17.8C18.9201 21.0002 19.4802 21.0002 19.908 20.7822C20.2843 20.5905 20.5903 20.2845 20.782 19.9082C21 19.4804 21 18.9203 21 17.8002V10.5653C21 9.99094 21 9.70376 20.926 9.4393C20.8604 9.20503 20.7526 8.98469 20.608 8.7891C20.4447 8.5683 20.218 8.39199 19.7646 8.03937L12.9823 2.76424Z" stroke="#ffffff" stroke-width="2" stroke-linecap="round" stroke-linejoin="round"/> </g>

</svg>